<svg xmlns="http://www.w3.org/2000/svg" viewBox="0 0 512 512"><path d="M423.796 512H88.203c-19.759 0-35.835-15.785-35.835-35.189V92.187c0-19.656 15.991-35.647 35.647-35.647h335.783c19.761 0 35.835 15.785 35.835 35.189v190.049c0 7.949-6.445 14.393-14.393 14.393s-14.393-6.444-14.393-14.393V91.729c0-3.531-3.162-6.402-7.048-6.402H88.014a6.867 6.867 0 00-6.86 6.86v384.624c0 3.531 3.162 6.402 7.048 6.402h335.595c3.886 0 7.048-2.873 7.048-6.402V372.17c0-7.949 6.445-14.393 14.393-14.393s14.393 6.444 14.393 14.393v104.641c.002 19.402-16.074 35.189-35.835 35.189z" fill="#2d527c"/><path d="M311.339 71.967a56.06 56.06 0 00.076-2.879c0-30.207-24.487-54.695-54.695-54.695s-54.695 24.487-54.695 54.695c0 .966.027 1.926.076 2.879h-65.568v53.253h238.932V71.967h-64.126z" fill="#cee8fa"/><path d="M375.464 139.613h-238.93c-7.949 0-14.393-6.444-14.393-14.393V71.967c0-7.949 6.444-14.393 14.393-14.393h52.057C194.089 24.939 222.546 0 256.719 0s62.631 24.939 68.128 57.574h50.617c7.948 0 14.393 6.444 14.393 14.393v53.253c.001 7.949-6.443 14.393-14.393 14.393zm-224.536-28.787h210.143V86.36h-49.733a14.394 14.394 0 01-14.374-15.135 42.09 42.09 0 00.056-2.137c0-22.222-18.08-40.301-40.301-40.301s-40.301 18.08-40.301 40.301c0 .717.02 1.429.058 2.137a14.397 14.397 0 01-14.375 15.135h-51.173v24.466z" fill="#2d527c"/><path fill="#cee8fa" d="M136.536 181.875h122.341v47.498H136.536z"/><g fill="#2d527c"><path d="M258.875 243.761H136.534c-7.949 0-14.393-6.444-14.393-14.393V181.87c0-7.949 6.444-14.393 14.393-14.393h122.342c7.948 0 14.393 6.444 14.393 14.393v47.498c-.001 7.949-6.444 14.393-14.394 14.393zm-107.947-28.787h93.556v-18.711h-93.556v18.711zM375.464 243.761h-57.575c-7.948 0-14.393-6.444-14.393-14.393V181.87c0-7.949 6.445-14.393 14.393-14.393h57.575c7.948 0 14.393 6.444 14.393 14.393s-6.445 14.393-14.393 14.393h-43.182v18.711h43.182c7.948 0 14.393 6.444 14.393 14.393s-6.443 14.394-14.393 14.394z"/></g><path fill="#cee8fa" d="M136.536 387.7h122.341v47.498H136.536z"/><g fill="#2d527c"><path d="M258.875 449.586H136.534c-7.949 0-14.393-6.444-14.393-14.393v-47.498c0-7.949 6.444-14.393 14.393-14.393h122.342c7.948 0 14.393 6.444 14.393 14.393v47.498c-.001 7.949-6.444 14.393-14.394 14.393zm-107.947-28.787h93.556v-18.711h-93.556v18.711zM375.464 449.586h-57.575c-7.948 0-14.393-6.444-14.393-14.393v-47.498c0-7.949 6.445-14.393 14.393-14.393h57.575c7.948 0 14.393 6.444 14.393 14.393s-6.445 14.393-14.393 14.393h-43.182v18.711h43.182c7.948 0 14.393 6.444 14.393 14.393.001 7.95-6.443 14.394-14.393 14.394z"/></g><path fill="#cee8fa" d="M253.122 284.787h122.341v47.498H253.122z"/><g fill="#2d527c"><path d="M375.464 346.673H253.123c-7.949 0-14.393-6.444-14.393-14.393v-47.498c0-7.949 6.444-14.393 14.393-14.393h122.341c7.948 0 14.393 6.444 14.393 14.393v47.498c.001 7.949-6.443 14.393-14.393 14.393zm-107.947-28.786h93.554v-18.711h-93.554v18.711zM194.109 346.673h-57.575c-7.949 0-14.393-6.444-14.393-14.393v-47.498c0-7.949 6.444-14.393 14.393-14.393h57.575c7.949 0 14.393 6.444 14.393 14.393s-6.444 14.393-14.393 14.393h-43.182v18.711h43.182c7.949 0 14.393 6.444 14.393 14.393.001 7.95-6.443 14.394-14.393 14.394z"/></g></svg>