<svg xmlns="http://www.w3.org/2000/svg" xmlns:xlink="http://www.w3.org/1999/xlink" width="2050" height="780" viewBox="0 0 1537.5 585" version="1.2"><defs><symbol overflow="visible" id="c"><path d="M71.86-88.594c.75-7.031 5.703-10.547 14.859-10.547 4.894 0 8.531.383 10.906 1.141 2.383.75 4.047 2.07 4.984 3.953.946 1.875 1.516 3.54 1.704 4.984.187 1.438.28 3.602.28 6.485v65.844c0 2.875-.093 5.039-.28 6.484-.188 1.438-.727 3.102-1.61 4.984-1.75 3.262-6.047 4.891-12.89 4.891-6.836 0-11.415-.844-13.735-2.531-2.312-1.696-3.656-4.176-4.031-7.438-4.649 6.649-12.39 9.969-23.234 9.969-10.844 0-20.907-4.953-30.188-14.86C9.344-25.14 4.703-36.644 4.703-49.75c0-13.102 4.672-24.578 14.016-34.422 9.343-9.851 19.593-14.781 30.75-14.781 4.27 0 8.16.758 11.672 2.266 3.507 1.5 5.953 2.914 7.328 4.234 1.383 1.312 2.515 2.601 3.39 3.86zM37.624-49.469c0 4.137 1.629 7.867 4.89 11.188 3.258 3.324 7.208 4.984 11.844 4.984 4.645 0 8.504-1.691 11.578-5.078 3.07-3.383 4.61-7.113 4.61-11.188 0-4.082-1.477-7.878-4.422-11.39-2.95-3.508-6.902-5.266-11.86-5.266-4.949 0-8.96 1.758-12.03 5.266-3.075 3.512-4.61 7.34-4.61 11.484zm0 0"/></symbol><symbol overflow="visible" id="d"><path d="M74.86-98c2.382.75 4.359 2.04 5.921 3.86 1.57 1.812 2.36 4.73 2.36 8.75 0 4.011-1.196 8.402-3.579 13.171-2.374 4.762-5.824 7.14-10.343 7.14-2.25 0-4.414-.5-6.485-1.5-2.074-1.007-4.804-1.515-8.187-1.515-3.387 0-6.555 1.196-9.5 3.578-2.95 2.375-4.422 5.258-4.422 8.641v39.516c0 2.886-.094 5.047-.281 6.484-.188 1.438-.782 3.102-1.782 4.984C36.676-1.629 31.785 0 23.892 0 17.868 0 13.54-1.066 10.907-3.203c-2-1.75-3.125-4.442-3.375-8.078v-71.485c0-2.882.094-5.046.282-6.484.187-1.445.718-3.05 1.593-4.813 1.75-3.382 6.64-5.078 14.672-5.078 7.52 0 12.223 1.446 14.11 4.329 1.374 2.011 2.062 4.085 2.062 6.218.633-.883 1.547-1.953 2.734-3.203 1.188-1.25 3.723-2.941 7.61-5.078 3.894-2.133 7.316-3.203 10.265-3.203 2.946 0 5.422.156 7.422.469 2.008.312 4.203.851 6.578 1.609zm0 0"/></symbol><symbol overflow="visible" id="e"><path d="M99.703-98c7.395 3.262 11.094 7.21 11.094 11.844 0 2.261-.508 4.398-1.516 6.406-1 2-1.5 3.063-1.5 3.188L58.5 33.671c-1 2.383-1.852 4.203-2.547 5.453-.687 1.258-1.789 2.453-3.297 3.578-1.5 1.125-3.383 1.688-5.64 1.688-2.25 0-5.57-.938-9.953-2.813-7.407-3.262-11.11-7.152-11.11-11.672 0-3.011 6.02-17.37 18.063-43.078L6.578-76.188c-2.5-4.132-3.75-7.207-3.75-9.218 0-4.008 3.383-8.02 10.156-12.031 4.258-2.508 7.579-3.766 9.954-3.766 2.382 0 4.328.508 5.828 1.516 1.507 1 2.609 2.03 3.297 3.093.695 1.063 4.148 6.899 10.359 17.5a1588.079 1588.079 0 0017.766 29.625c.632-2.008 4.019-9.754 10.156-23.234 6.144-13.477 9.437-20.656 9.875-21.531.445-.883 1.172-1.954 2.172-3.204 1.632-2.132 3.921-3.203 6.859-3.203 2.945 0 6.43.883 10.453 2.641zm0 0"/></symbol><symbol overflow="visible" id="f"><path d="M51.547-.375c-12.668 0-23.172-4.797-31.516-14.39-8.336-9.594-12.5-21.286-12.5-35.079v-32.922c0-3.007.094-5.203.282-6.578.187-1.383.718-3.02 1.593-4.906 1.75-3.383 6.64-5.078 14.672-5.078 8.781 0 13.922 2.387 15.422 7.156.75 2.012 1.125 5.211 1.125 9.594v32.922c0 5.136 1.473 9.148 4.422 12.031 2.945 2.887 6.894 4.328 11.844 4.328 4.957 0 8.972-1.504 12.047-4.516 3.07-3.007 4.609-6.957 4.609-11.843v-33.297c0-2.883.094-5.047.281-6.484.188-1.446.785-3.114 1.797-5 1.625-3.258 6.453-4.891 14.484-4.891 7.895 0 12.723 1.695 14.485 5.078.875 1.887 1.406 3.555 1.594 5 .187 1.438.28 3.602.28 6.484v66.594c0 2.762-.093 4.86-.28 6.297-.188 1.438-.782 3.04-1.782 4.797-1.886 3.262-6.715 4.89-14.484 4.89-7.656 0-12.36-1.503-14.11-4.515-1.261-2.133-1.89-4.707-1.89-7.719-.5.887-1.633 2.149-3.39 3.781-1.75 1.625-3.438 3-5.063 4.125-4.274 2.762-8.914 4.141-13.922 4.141zm0 0"/></symbol><symbol overflow="visible" id="g"><path d="M65.078-65.844l-12.219-.75v25.969c0 3.387.532 5.836 1.594 7.344 1.07 1.5 3.078 2.25 6.016 2.25 2.945 0 5.203.093 6.765.281 1.57.188 3.239.781 5 1.781 2.883 1.637 4.329 5.84 4.329 12.61 0 7.898-1.758 12.726-5.266 14.484-1.887.875-3.555 1.406-5 1.594C64.859-.094 62.757 0 60 0 46.957 0 37.05-2.945 30.281-8.844c-6.773-5.894-10.156-15.863-10.156-29.906v-27.844c-2.387.375-4.96.563-7.719.563-2.75 0-5.039-1.063-6.86-3.188-1.812-2.133-2.718-5.77-2.718-10.906 0-5.145.313-8.879.938-11.203.625-2.32 1.5-3.984 2.625-4.984 2.007-1.626 4.52-2.438 7.53-2.438l6.204.75v-19.375c0-2.883.094-5.016.281-6.39.188-1.383.785-2.895 1.797-4.532C23.828-131.43 28.656-133 36.688-133c8.519 0 13.597 2.324 15.234 6.969.625 2 .937 5.199.937 9.594V-98c5.52-.5 9.688-.75 12.5-.75 2.82 0 4.954.094 6.391.281 1.445.188 3.113.781 5 1.781 3.258 1.626 4.89 6.454 4.89 14.485 0 7.898-1.695 12.726-5.078 14.484-1.886.875-3.554 1.406-5 1.594-1.437.188-3.601.281-6.484.281zm0 0"/></symbol><symbol overflow="visible" id="h"><path d="M7.531-82.578c0-2.883.094-5.047.282-6.484.187-1.446.718-3.114 1.593-5 1.75-3.258 6.64-4.891 14.672-4.891 6.02 0 10.285 1.07 12.797 3.203 2.125 1.762 3.25 4.46 3.375 8.094.125 1.25.188 3.07.188 5.453v65.844c0 2.886-.094 5.047-.282 6.484-.187 1.438-.781 3.102-1.781 4.984C36.738-1.629 31.91 0 23.891 0 15.984 0 11.156-1.691 9.406-5.078 8.531-6.961 8-8.594 7.812-9.968c-.187-1.376-.28-3.567-.28-6.579zm30.938-34.89c-.938 1.812-2.602 3.1-4.985 3.859-2.386.75-5.554 1.125-9.5 1.125-3.949 0-7.117-.375-9.5-1.125-2.386-.758-4.046-2.079-4.984-3.954-.938-1.882-1.5-3.546-1.688-4.984-.187-1.445-.28-3.613-.28-6.5 0-2.883.093-5.047.28-6.484.188-1.446.72-3.047 1.594-4.797 1.75-3.383 6.64-5.078 14.672-5.078 7.895 0 12.66 1.695 14.297 5.078 1 1.875 1.594 3.539 1.781 4.984.188 1.438.282 3.602.282 6.485 0 2.886-.094 5.054-.282 6.5-.187 1.437-.75 3.07-1.687 4.89zm0 0"/></symbol><symbol overflow="visible" id="i"><path d="M7.531-129.234c0-2.883.094-5.047.282-6.485.187-1.445.718-3.11 1.593-4.984 1.75-3.383 6.64-5.078 14.672-5.078 7.645 0 12.41 1.695 14.297 5.078 1 1.875 1.594 3.57 1.781 5.078.188 1.5.282 3.695.282 6.578v87.094c0 4.523.374 7.375 1.124 8.562.758 1.188 2.422 1.782 4.985 1.782 2.57 0 4.297.101 5.172.297.883.187 1.953.718 3.203 1.593 2.508 1.625 3.766 6.078 3.766 13.36 0 7.898-1.258 12.726-3.766 14.484C51.66.375 43.89.75 31.609-.75c-9.656-1.258-15.93-4.457-18.812-9.594C9.285-16.488 7.53-26.27 7.53-39.687zm0 0"/></symbol><symbol overflow="visible" id="j"><path d="M8.281-8.844c-2.386-1.5-3.578-3.879-3.578-7.14 0-3.258 2.379-8.211 7.14-14.86 1.384-2.133 3.614-3.203 6.688-3.203 3.07 0 7.239 1.54 12.5 4.61 5.27 3.074 10.035 4.609 14.297 4.609 7.656 0 11.484-1.504 11.484-4.516 0-2.383-4.203-4.14-12.609-5.265-7.898-1.133-15.734-4.082-23.516-8.844-3.636-2.258-6.648-5.8-9.03-10.625-2.376-4.832-3.563-10.57-3.563-17.219 0-19.812 13.601-29.719 40.812-29.719 8.907 0 18.063 2.133 27.469 6.391 4.383 2.012 6.578 4.523 6.578 7.531 0 3.012-1.383 6.715-4.14 11.11-2.762 4.386-5.579 6.578-8.454 6.578-1.511 0-4.304-.942-8.375-2.828-4.074-1.883-8.496-2.829-13.265-2.829-7.399 0-11.094 1.383-11.094 4.141 0 3.762 4.258 6.211 12.781 7.344 8.282.875 16.305 3.258 24.078 7.14 3.645 1.762 6.688 4.81 9.125 9.141 2.446 4.324 3.672 9.746 3.672 16.266 0 6.523-1.226 12.07-3.672 16.64-2.437 4.575-5.855 7.993-10.25 10.25-8.023 3.887-18.086 5.829-30.187 5.829-12.106 0-23.734-3.508-34.89-10.532zm0 0"/></symbol><symbol overflow="visible" id="k"><path d="M35.047-31.61c2.125 1.274 3.187 2.622 3.187 4.047 0 .825-.406 1.95-1.218 3.375L24.296-2.39c-.405.7-1.062 1.325-1.968 1.875-.898.551-1.789.829-2.672.829a5.293 5.293 0 01-2.515-.641c-.793-.438-1.352-.879-1.672-1.328l-.547-.672L2.14-24.188C1.328-25.53.92-26.633.92-27.5c0-1.469 1.063-2.836 3.188-4.11 1.551-.894 2.774-1.343 3.672-1.343.907 0 1.614.277 2.125.828.508.555 1.051 1.383 1.625 2.484l8.047 15.47 8.047-15.47c.445-.78.781-1.343 1-1.687.227-.352.586-.703 1.078-1.047.488-.344 1.14-.516 1.953-.516.82 0 1.953.43 3.39 1.282zm0 0"/></symbol><symbol overflow="visible" id="l"><path d="M2.453-26.938c0-.945.031-1.656.094-2.125.062-.468.234-1.007.515-1.625.57-1.062 2.172-1.593 4.797-1.593 1.957 0 3.348.351 4.172 1.047.696.574 1.067 1.453 1.11 2.64.039.407.062.996.062 1.766v21.484c0 .95-.031 1.657-.094 2.125-.062.469-.261 1.012-.593 1.625C11.984-.53 10.41 0 7.796 0 5.212 0 3.634-.55 3.063-1.656c-.28-.614-.453-1.145-.515-1.594-.063-.445-.094-1.164-.094-2.156zm10.094-11.39c-.305.594-.844 1.016-1.625 1.266-.774.242-1.805.359-3.094.359-1.293 0-2.328-.117-3.11-.36-.773-.25-1.312-.68-1.624-1.296-.305-.614-.485-1.157-.547-1.625-.063-.47-.094-1.172-.094-2.11 0-.945.031-1.656.094-2.125.062-.468.234-.988.515-1.562.57-1.102 2.172-1.657 4.797-1.657 2.57 0 4.125.555 4.657 1.657.332.617.53 1.156.593 1.625.063.468.094 1.18.094 2.125 0 .937-.031 1.64-.094 2.11-.062.468-.25 1-.562 1.593zm0 0"/></symbol><symbol overflow="visible" id="m"><path d="M24.422-31.969a4.096 4.096 0 011.937 1.25c.508.594.766 1.547.766 2.86 0 1.304-.39 2.734-1.172 4.297-.773 1.554-1.89 2.328-3.36 2.328-.741 0-1.448-.16-2.124-.485-.68-.332-1.57-.5-2.672-.5-1.106 0-2.14.39-3.11 1.172-.96.774-1.437 1.711-1.437 2.813v12.89c0 .95-.031 1.657-.094 2.125-.054.469-.246 1.012-.578 1.625C11.961-.53 10.368 0 7.797 0 5.828 0 4.414-.348 3.563-1.047c-.657-.57-1.028-1.453-1.11-2.64V-27c0-.945.031-1.656.094-2.125.062-.469.234-.988.515-1.563.57-1.101 2.172-1.656 4.797-1.656 2.446 0 3.977.469 4.594 1.407.457.656.688 1.335.688 2.03.195-.288.488-.64.875-1.046.394-.406 1.222-.957 2.484-1.656 1.27-.696 2.383-1.047 3.344-1.047.968 0 1.781.054 2.437.156.657.105 1.367.281 2.14.531zm0 0"/></symbol><symbol overflow="visible" id="n"><path d="M1.531-16.14c0-4.907 1.719-8.954 5.157-12.141 3.437-3.196 7.363-4.797 11.78-4.797 4.427 0 8.337 1.59 11.735 4.766 3.395 3.167 5.094 7.203 5.094 12.109 0 3.398-.883 6.418-2.64 9.062-1.762 2.637-3.903 4.579-6.423 5.829C23.723-.07 21.114.546 18.406.546c-2.699 0-5.32-.66-7.86-1.985-2.53-1.332-4.667-3.296-6.405-5.89-1.743-2.602-2.61-5.54-2.61-8.813zm12.828 4.39c1.313 1 2.641 1.5 3.985 1.5 1.351 0 2.703-.508 4.047-1.531 1.351-1.02 2.03-2.531 2.03-4.531 0-2.008-.636-3.504-1.905-4.485-1.262-.988-2.633-1.484-4.11-1.484-1.468 0-2.84.515-4.11 1.547-1.273 1.023-1.905 2.527-1.905 4.515 0 1.98.656 3.469 1.968 4.469zm0 0"/></symbol><symbol overflow="visible" id="o"><path d="M20.438-32.344c4.093 0 7.5 1.57 10.218 4.703 2.719 3.125 4.078 6.938 4.078 11.438v10.797c0 .949-.03 1.656-.093 2.125-.063.469-.235.992-.516 1.562-.574 1.106-2.168 1.657-4.781 1.657-2.907 0-4.59-.754-5.047-2.266-.242-.695-.36-1.742-.36-3.14v-10.798c0-1.675-.484-2.984-1.453-3.922-.96-.945-2.246-1.421-3.859-1.421-1.617 0-2.922.496-3.922 1.484-1 .98-1.5 2.266-1.5 3.86v10.859c0 .949-.031 1.656-.094 2.125-.062.469-.261.992-.593 1.562-.532 1.106-2.106 1.657-4.72 1.657-2.585 0-4.163-.551-4.734-1.657-.28-.613-.453-1.156-.515-1.625-.063-.469-.094-1.176-.094-2.125v-21.718c0-.907.031-1.594.094-2.063.062-.469.254-.988.578-1.563.57-1.019 2.148-1.53 4.734-1.53 2.489 0 4.02.468 4.594 1.406.414.699.625 1.539.625 2.515.156-.281.52-.687 1.094-1.219.57-.53 1.125-.96 1.656-1.297a8.084 8.084 0 014.61-1.406zm0 0"/></symbol><symbol overflow="visible" id="p"><path d="M2.703-2.89c-.781-.49-1.172-1.267-1.172-2.33 0-1.062.774-2.676 2.328-4.843.457-.696 1.188-1.047 2.188-1.047 1 0 2.36.507 4.078 1.515 1.719 1 3.273 1.5 4.672 1.5 2.488 0 3.734-.492 3.734-1.484 0-.77-1.37-1.344-4.11-1.719-2.573-.363-5.132-1.32-7.671-2.875-1.188-.738-2.172-1.894-2.953-3.469-.774-1.582-1.156-3.457-1.156-5.625 0-6.457 4.437-9.687 13.312-9.687 2.906 0 5.895.695 8.969 2.078 1.426.656 2.14 1.48 2.14 2.469 0 .98-.453 2.187-1.359 3.625-.898 1.43-1.812 2.14-2.75 2.14-.492 0-1.402-.304-2.734-.922-1.324-.613-2.766-.921-4.328-.921-2.407 0-3.61.449-3.61 1.343 0 1.23 1.39 2.028 4.172 2.391 2.695.293 5.313 1.074 7.844 2.344 1.187.574 2.18 1.57 2.984 2.984.801 1.406 1.203 3.172 1.203 5.297 0 2.125-.402 3.938-1.203 5.438-.804 1.492-1.918 2.605-3.343 3.343-2.618 1.262-5.903 1.89-9.86 1.89-3.95 0-7.742-1.144-11.375-3.437zm0 0"/></symbol><clipPath id="a"><path d="M40 105h306v341.93H40zm0 0"/></clipPath><clipPath id="b"><path d="M92 63.508h202V169H92zm0 0"/></clipPath></defs><g clip-path="url(#a)"><path d="M318.43 446.93H67.113c-14.797 0-26.836-11.82-26.836-26.352V132.543c0-14.719 11.977-26.695 26.696-26.695h251.46c14.797 0 26.837 11.82 26.837 26.351v142.324c0 5.954-4.829 10.778-10.782 10.778-5.949 0-10.777-4.824-10.777-10.778V132.2c0-2.644-2.367-4.793-5.277-4.793H66.973a5.046 5.046 0 00-1.965.39 5.1 5.1 0 00-.887.477 5.073 5.073 0 00-1.418 1.418 4.944 4.944 0 00-.473.887 4.66 4.66 0 00-.292.965 5.05 5.05 0 00-.102 1v288.035c0 2.645 2.367 4.793 5.277 4.793h251.32c2.91 0 5.278-2.152 5.278-4.793v-78.363c0-5.953 4.824-10.777 10.777-10.777 5.953 0 10.778 4.824 10.778 10.777v78.363c.004 14.527-12.036 26.352-26.836 26.352zm0 0" fill="#2d527c"/></g><path d="M234.215 117.402c.039-.718.058-1.437.058-2.156 0-22.621-18.34-40.96-40.96-40.96-22.622 0-40.961 18.335-40.961 40.96 0 .723.023 1.442.058 2.156h-49.1v39.88h178.93v-39.88zm0 0" fill="#cee8fa"/><g clip-path="url(#b)"><path d="M282.238 168.059h-178.93c-5.953 0-10.777-4.825-10.777-10.778v-39.879c0-5.953 4.824-10.78 10.778-10.78h38.984c4.117-24.438 25.43-43.114 51.02-43.114 25.59 0 46.902 18.676 51.019 43.113h37.906c5.95 0 10.778 4.828 10.778 10.781v39.88c0 5.952-4.825 10.777-10.778 10.777zM114.09 146.5h157.367v-18.32h-37.242c-.73 0-1.453-.075-2.172-.223a10.553 10.553 0 01-2.082-.652 10.862 10.862 0 01-3.563-2.48 10.543 10.543 0 01-1.332-1.727 10.733 10.733 0 01-.96-1.961 10.638 10.638 0 01-.547-2.114 10.96 10.96 0 01-.11-2.18c.028-.53.043-1.066.043-1.597 0-16.644-13.539-30.183-30.18-30.183-16.64 0-30.18 13.542-30.18 30.183 0 .535.016 1.07.044 1.598.035.73 0 1.457-.11 2.18a10.733 10.733 0 01-2.844 5.8c-.5.531-1.054 1.004-1.652 1.422a10.855 10.855 0 01-3.988 1.711c-.719.148-1.441.223-2.172.223h-38.32zm0 0" fill="#2d527c"/></g><path d="M103.309 199.707h91.62v35.57h-91.62zm0 0" fill="#cee8fa"/><path d="M194.926 246.05h-91.617c-5.954 0-10.778-4.823-10.778-10.777v-35.57c0-5.953 4.824-10.777 10.778-10.777h91.617c5.953 0 10.781 4.824 10.781 10.777v35.57c-.004 5.954-4.828 10.778-10.781 10.778zm-80.836-21.554h70.058v-14.012H114.09zm168.148 21.555h-43.117c-5.953 0-10.777-4.824-10.777-10.778v-35.57c0-5.953 4.824-10.777 10.777-10.777h43.117c5.95 0 10.778 4.824 10.778 10.777 0 5.953-4.829 10.781-10.778 10.781h-32.34v14.012h32.34c5.95 0 10.778 4.824 10.778 10.777 0 5.954-4.825 10.778-10.778 10.778zm0 0" fill="#2d527c"/><path d="M103.309 353.844h91.62v35.57h-91.62zm0 0" fill="#cee8fa"/><path d="M194.926 400.188h-91.617c-5.954 0-10.778-4.825-10.778-10.778v-35.57c0-5.953 4.824-10.777 10.778-10.777h91.617c5.953 0 10.781 4.824 10.781 10.777v35.57c-.004 5.953-4.828 10.777-10.781 10.777zm-80.836-21.555h70.058v-14.016H114.09zm168.148 21.555h-43.117c-5.953 0-10.777-4.825-10.777-10.778v-35.57c0-5.953 4.824-10.777 10.777-10.777h43.117c5.95 0 10.778 4.824 10.778 10.777 0 5.953-4.829 10.777-10.778 10.777h-32.34v14.016h32.34c5.95 0 10.778 4.824 10.778 10.777 0 5.953-4.825 10.777-10.778 10.777zm0 0" fill="#2d527c"/><path d="M190.617 276.777h91.617v35.567h-91.617zm0 0" fill="#cee8fa"/><path d="M282.238 323.121h-91.62c-5.95 0-10.778-4.828-10.778-10.777v-35.57c0-5.954 4.828-10.782 10.777-10.782h91.621c5.95 0 10.778 4.828 10.778 10.781v35.57c0 5.95-4.825 10.778-10.778 10.778zm-80.84-21.558h70.059V287.55h-70.059zm-54.972 21.558h-43.117c-5.954 0-10.778-4.828-10.778-10.777v-35.57c0-5.954 4.824-10.782 10.778-10.782h43.117c5.953 0 10.777 4.828 10.777 10.781 0 5.954-4.824 10.778-10.777 10.778h-32.34v14.012h32.34c5.953 0 10.777 4.824 10.777 10.777 0 5.953-4.824 10.781-10.777 10.781zm0 0" fill="#2d527c"/><use xlink:href="#c" x="384.582" y="360.992" fill="#2d527c"/><use xlink:href="#d" x="499.518" y="360.992" fill="#2d527c"/><use xlink:href="#d" x="588.307" y="360.992" fill="#2d527c"/><use xlink:href="#c" x="677.095" y="360.992" fill="#2d527c"/><use xlink:href="#e" x="792.032" y="360.992" fill="#2d527c"/><use xlink:href="#f" x="908.473" y="360.992" fill="#2d527c"/><use xlink:href="#g" x="1025.29" y="360.992" fill="#2d527c"/><use xlink:href="#h" x="1112.574" y="360.992" fill="#2d527c"/><use xlink:href="#i" x="1163.364" y="360.992" fill="#2d527c"/><use xlink:href="#j" x="1227.698" y="360.992" fill="#2d527c"/><use xlink:href="#k" x="87.681" y="511.424" fill="#2d527c"/><use xlink:href="#l" x="127.763" y="511.424" fill="#2d527c"/><use xlink:href="#m" x="144.337" y="511.424" fill="#2d527c"/><use xlink:href="#l" x="173.309" y="511.424" fill="#2d527c"/><use xlink:href="#n" x="189.882" y="511.424" fill="#2d527c"/><use xlink:href="#o" x="227.633" y="511.424" fill="#2d527c"/><use xlink:href="#p" x="265.751" y="511.424" fill="#2d527c"/></svg>